<?xml version="1.0" encoding="UTF-8"?>
<svg width="374px" height="68px" viewBox="0 0 374 68" version="1.1" xmlns="http://www.w3.org/2000/svg" xmlns:xlink="http://www.w3.org/1999/xlink">
    <!-- Generator: Sketch 64 (93537) - https://sketch.com -->
    <title>elektron</title>
    <desc>Created with Sketch.</desc>
    <g id="Page-1" stroke="none" stroke-width="1" fill="none" fill-rule="evenodd">
        <g id="elektron" fill="#FFFFFF" fill-rule="nonzero">
            <path d="M340.87,25.62 L340.87,19.05 L330.87,19.05 L330.87,66.67 L341.16,66.67 L341.16,44.2 C341.16,34.58 344.11,27.63 353.35,27.63 C359.35,27.63 363.35,31.44 363.35,39.25 L363.35,66.68 L373.83,66.68 L373.83,37.91 C373.83,25.81 368.21,17.91 356.49,17.91 C349.92,17.91 344.4,20.67 340.87,25.62 M313.68,42.86 C313.68,51.72 307.58,57.81 299.01,57.81 C290.44,57.81 284.34,51.71 284.34,42.86 C284.34,34 290.44,27.9 299.01,27.9 C307.58,27.91 313.68,34 313.68,42.86 M273.77,42.86 C273.77,57.43 284.53,67.81 299.01,67.81 C313.49,67.81 324.25,57.43 324.25,42.86 C324.25,28.29 313.49,17.9 299.01,17.9 C284.53,17.9 273.77,28.29 273.77,42.86 M253.61,26.58 L253.61,19.06 L243.7,19.06 L243.7,66.68 L253.99,66.68 L253.99,44.86 C253.99,34.76 257.51,28.76 267.04,28.76 C268.94,28.76 270.66,29.05 272.28,29.43 L272.28,18.48 C270.76,18.1 269.33,17.91 267.61,17.91 C260.95,17.91 256.47,21.15 253.61,26.58 M236.82,65.82 L236.82,56.39 C233.77,56.87 231.96,57.15 229.49,57.15 C225.78,57.15 224.35,55.44 224.35,52.1 L224.35,27.81 L236.92,27.81 L236.92,19.05 L224.35,19.05 L224.35,6.29 L214.06,6.29 L214.06,19.05 L205.01,19.05 L205.01,27.81 L214.06,27.81 L214.06,52.77 C214.06,63.25 218.82,67.15 227.58,67.15 C230.63,67.15 233.87,66.68 236.82,65.82 M188.66,66.68 L202,66.68 L181.43,39.72 L202,19.05 L188,19.05 L168.38,39.81 L168.38,0 L158.09,0 L158.09,66.68 L168.38,66.68 L168.38,52.77 L174.48,46.67 L188.66,66.68 Z M140.41,38.19 L115.17,38.19 C116.41,31.33 120.79,27.05 128.31,27.05 C135.74,27.05 139.75,31.62 140.41,38.19 M104.6,43.05 C104.6,57.72 114.22,67.81 129.46,67.81 C138.41,67.81 144.6,64.09 148.51,60.28 L143.65,51.99 C140.32,55.42 135.65,58.18 129.36,58.18 C122.5,58.18 116.02,54.18 115.07,46.08 L115.07,45.98 L151.65,45.98 L151.65,43.03 C151.65,28.27 143.27,17.88 128.5,17.88 C113.84,17.91 104.6,29.05 104.6,43.05 M87.5,66.68 L97.98,66.68 L97.98,0 L87.5,0 L87.5,66.68 Z M35.81,38.19 L10.57,38.19 C11.81,31.33 16.19,27.05 23.71,27.05 C31.15,27.05 35.15,31.62 35.81,38.19 M0,43.05 C0,57.72 9.62,67.81 24.86,67.81 C33.81,67.81 40.01,64.09 43.91,60.28 L39.05,51.99 C35.72,55.42 31.05,58.18 24.76,58.18 C17.9,58.18 11.43,54.18 10.47,46.08 L10.47,45.98 L47.05,45.98 L47.05,43.03 C47.05,28.27 38.67,17.88 23.9,17.88 C9.24,17.91 0,29.05 0,43.05" id="Shape"></path>
            <rect id="Rectangle" x="47.93" y="4.05" width="30.77" height="8.1"></rect>
        </g>
    </g>
</svg>